<?xml version="1.0" encoding="UTF-8"?>
<svg id="Layer_2" data-name="Layer 2" xmlns="http://www.w3.org/2000/svg" viewBox="0 0 112.56 80">
  <defs>
    <style>
      .cls-1 {
        fill: #7660ad;
      }

      .cls-2 {
        fill: #a9a9aa;
      }

      .cls-3 {
        fill: #fff;
      }

      .cls-4 {
        fill: #616263;
      }
    </style>
  </defs>
  <g id="Layer_1-2" data-name="Layer 1">
    <path class="cls-2" d="M11.26,11.26C11.26,5.05,16.3,0,22.51,0h67.54c6.21,0,11.26,5.05,11.26,11.26v45.02h-11.26V11.26H22.51v45.02h-11.26V11.26ZM0,65.28c0-1.86,1.51-3.38,3.38-3.38h105.81c1.86,0,3.38,1.51,3.38,3.38,0,7.46-6.05,13.51-13.51,13.51H13.51c-7.46,0-13.51-6.05-13.51-13.51ZM31.6,18.58l-1.89,1.89,1.89,1.89c.57.57.57,1.5,0,2.07s-1.5.57-2.07,0l-2.93-2.93c-.57-.57-.57-1.5,0-2.07l2.93-2.93c.57-.57,1.5-.57,2.07,0s.57,1.5,0,2.07h0ZM39.56,16.5l2.93,2.93c.57.57.57,1.5,0,2.07l-2.93,2.93c-.57.57-1.5.57-2.07,0s-.57-1.5,0-2.07l1.89-1.89-1.89-1.89c-.57-.57-.57-1.5,0-2.07s1.5-.57,2.07,0h0Z"/>
    <g>
      <path class="cls-3" d="M105.48,80c-1.41,0-2.74-.55-3.73-1.55l-15.54-15.55c-4.61,3.13-9.98,4.77-15.6,4.77-15.35,0-27.84-12.49-27.84-27.84s12.49-27.84,27.84-27.84,27.84,12.49,27.84,27.84c0,5.61-1.65,10.98-4.78,15.6l15.54,15.55c1,1,1.55,2.32,1.55,3.73s-.55,2.74-1.55,3.73c-1,1-2.32,1.55-3.73,1.55ZM70.61,22.55c-9.53,0-17.29,7.76-17.29,17.29s7.76,17.29,17.29,17.29,17.29-7.76,17.29-17.29-7.76-17.29-17.29-17.29Z"/>
      <path class="cls-4" d="M97.28,39.84c0,5.89-1.91,11.32-5.13,15.73l16.23,16.25c1.6,1.6,1.6,4.21,0,5.81-1.6,1.6-4.21,1.6-5.81,0l-16.23-16.25c-4.41,3.23-9.85,5.13-15.73,5.13-14.73,0-26.67-11.94-26.67-26.67s11.94-26.67,26.67-26.67,26.67,11.94,26.67,26.67ZM70.61,58.3c10.2,0,18.46-8.27,18.46-18.46s-8.27-18.46-18.46-18.46-18.46,8.27-18.46,18.46,8.27,18.46,18.46,18.46Z"/>
    </g>
    <path class="cls-1" d="M63.75,33.53c0-.65-.52-1.17-1.17-1.17s-1.17.52-1.17,1.17v12.31c0,1.62,1.31,2.93,2.93,2.93h14.66c.65,0,1.17-.52,1.17-1.17s-.52-1.17-1.17-1.17h-14.66c-.32,0-.59-.26-.59-.59v-12.31ZM78.65,36.71c.46-.46.46-1.2,0-1.66s-1.2-.46-1.66,0l-3.86,3.86-2.1-2.1c-.46-.46-1.2-.46-1.66,0l-4.1,4.1c-.46.46-.46,1.2,0,1.66s1.2.46,1.66,0l3.28-3.27,2.1,2.1c.46.46,1.2.46,1.66,0l4.69-4.69h0Z"/>
  </g>
</svg>