<?xml version="1.0" encoding="UTF-8"?>
<svg id="Layer_2" data-name="Layer 2" xmlns="http://www.w3.org/2000/svg" viewBox="0 0 480 341.15">
  <defs>
    <style>
      .cls-1 {
        fill: #fff;
      }

      .cls-2 {
        fill: #616263;
      }
    </style>
  </defs>
  <g id="Layer_1-2" data-name="Layer 1">
    <path class="cls-2" d="M48,48C48,21.53,69.52,0,96,0h288c26.47,0,48,21.53,48,48v192h-48V48H96v192h-48V48ZM0,278.4c0-7.95,6.45-14.4,14.4-14.4h451.2c7.95,0,14.4,6.45,14.4,14.4,0,31.8-25.8,57.6-57.6,57.6H57.6c-31.8,0-57.6-25.8-57.6-57.6ZM134.76,79.25l-8.08,8.08,8.08,8.08c2.45,2.45,2.45,6.41,0,8.83-2.45,2.42-6.41,2.45-8.83,0l-12.5-12.5c-2.45-2.45-2.45-6.41,0-8.83l12.5-12.5c2.45-2.45,6.41-2.45,8.83,0s2.45,6.41,0,8.83v.03ZM168.7,70.36l12.51,12.51c2.45,2.45,2.45,6.41,0,8.84l-12.51,12.51c-2.45,2.45-6.41,2.45-8.84,0-2.42-2.45-2.45-6.41,0-8.84l8.08-8.08-8.08-8.08c-2.45-2.45-2.45-6.41,0-8.84,2.45-2.42,6.41-2.45,8.84,0v-.03Z"/>
    <g>
      <path class="cls-1" d="M449.81,341.15c-6.02,0-11.67-2.34-15.92-6.59l-66.25-66.3c-19.64,13.33-42.55,20.36-66.53,20.36-65.47,0-118.73-53.26-118.73-118.73s53.26-118.73,118.73-118.73,118.73,53.26,118.73,118.73c0,23.91-7.03,46.82-20.37,66.53l66.26,66.31c4.25,4.25,6.59,9.9,6.59,15.92s-2.34,11.67-6.59,15.92-9.9,6.59-15.92,6.59ZM301.11,96.15c-40.66,0-73.74,33.08-73.74,73.74s33.08,73.74,73.74,73.74,73.74-33.08,73.74-73.74-33.08-73.74-73.74-73.74Z"/>
      <path class="cls-2" d="M414.84,169.89c0,25.1-8.15,48.28-21.87,67.09l69.22,69.28c6.83,6.83,6.83,17.93,0,24.77-6.83,6.83-17.93,6.83-24.77,0l-69.22-69.28c-18.81,13.78-41.99,21.87-67.09,21.87-62.83,0-113.73-50.91-113.73-113.73s50.91-113.73,113.73-113.73,113.73,50.91,113.73,113.73ZM301.11,248.62c43.49,0,78.74-35.25,78.74-78.74s-35.25-78.74-78.74-78.74-78.74,35.25-78.74,78.74,35.25,78.74,78.74,78.74Z"/>
    </g>
    <path class="cls-2" d="M271.86,143c0-2.77-2.23-5-5-5s-5,2.23-5,5v52.5c0,6.91,5.59,12.5,12.5,12.5h62.5c2.77,0,5-2.23,5-5s-2.23-5-5-5h-62.5c-1.38,0-2.5-1.13-2.5-2.5v-52.5ZM335.39,156.53c1.95-1.95,1.95-5.13,0-7.08s-5.12-1.95-7.08,0l-16.45,16.47-8.97-8.97c-1.95-1.95-5.13-1.95-7.08,0l-17.5,17.5c-1.95,1.95-1.95,5.12,0,7.08s5.13,1.95,7.08,0l13.97-13.95,8.97,8.97c1.95,1.95,5.12,1.95,7.08,0l20-20-.02-.02Z"/>
  </g>
</svg>